<svg width="65" height="65" viewBox="0 0 65 65" fill="none" xmlns="http://www.w3.org/2000/svg">
<path d="M55.8594 7.10938H9.14062C8.01709 7.10938 7.10938 8.01709 7.10938 9.14062V55.8594C7.10938 56.9829 8.01709 57.8906 9.14062 57.8906H55.8594C56.9829 57.8906 57.8906 56.9829 57.8906 55.8594V9.14062C57.8906 8.01709 56.9829 7.10938 55.8594 7.10938ZM46.1665 25.4985C46.1855 25.7969 46.1855 26.1079 46.1855 26.4126C46.1855 35.731 39.0889 46.4648 26.1206 46.4648C22.1216 46.4648 18.4146 45.3032 15.2915 43.3037C15.8628 43.3672 16.4087 43.3926 16.9927 43.3926C20.2935 43.3926 23.3276 42.2754 25.7461 40.3838C22.6484 40.3203 20.0459 38.2891 19.1572 35.4961C20.2427 35.6548 21.2202 35.6548 22.3374 35.3691C20.7424 35.0451 19.3088 34.1788 18.2801 32.9176C17.2514 31.6563 16.6911 30.0778 16.6943 28.4502V28.3613C17.6274 28.8882 18.7256 29.2119 19.8745 29.2563C18.9087 28.6127 18.1166 27.7406 17.5685 26.7175C17.0204 25.6944 16.7332 24.5518 16.7324 23.3911C16.7324 22.0771 17.0752 20.8774 17.6909 19.8364C19.4613 22.0158 21.6705 23.7983 24.1748 25.0679C26.6792 26.3376 29.4227 27.0661 32.2271 27.2061C31.2305 22.4136 34.8105 18.5352 39.1143 18.5352C41.1455 18.5352 42.9736 19.3857 44.2622 20.7568C45.8555 20.4585 47.3789 19.8618 48.7373 19.062C48.2104 20.6934 47.106 22.0708 45.6396 22.9404C47.0615 22.7881 48.4326 22.3945 49.7021 21.8423C48.7437 23.2515 47.5439 24.502 46.1665 25.4985Z" fill="#2A1E14"/>
</svg>
