<svg width="25" height="18" viewBox="0 0 25 18" fill="none" xmlns="http://www.w3.org/2000/svg">
<path d="M7 14.2069C7 16.3018 5.433 18 3.5 18C1.567 18 0 16.3018 0 14.2069C0 12.112 1.567 7 3.5 7C5.433 7 7 12.112 7 14.2069Z" fill="#2A1E14"/>
<path d="M16 14.5789C16 16.4683 14.433 18 12.5 18C10.567 18 9 16.4683 9 14.5789C9 12.6896 10.567 5 12.5 5C14.433 5 16 12.6896 16 14.5789Z" fill="#2A1E14"/>
<path d="M25 14.4706C25 16.4198 23.433 18 21.5 18C19.567 18 18 16.4198 18 14.4706C18 12.5213 19.567 0 21.5 0C23.433 0 25 12.5213 25 14.4706Z" fill="#C4C4C4"/>
</svg>
