<svg width="50" height="50" viewBox="0 0 50 50" fill="none" xmlns="http://www.w3.org/2000/svg">
<path d="M47.2331 0C47.9926 0 48.6437 0.271267 49.1862 0.813802C49.7287 1.35634 50 2.00738 50 2.76693V47.2331C50 47.9926 49.7287 48.6437 49.1862 49.1862C48.6437 49.7287 47.9926 50 47.2331 50H34.5052V30.6315H40.9831L41.9596 23.0794H34.5052V18.2617C34.5052 17.0464 34.7602 16.135 35.2702 15.5273C35.7802 14.9197 36.773 14.6159 38.2487 14.6159L42.2201 14.5833V7.84505C40.8529 7.64974 38.9214 7.55208 36.4258 7.55208C33.4744 7.55208 31.1144 8.42014 29.3457 10.1562C27.577 11.8924 26.6927 14.3446 26.6927 17.513V23.0794H20.1823V30.6315H26.6927V50H2.76693C2.00738 50 1.35634 49.7287 0.813802 49.1862C0.271267 48.6437 0 47.9926 0 47.2331V2.76693C0 2.00738 0.271267 1.35634 0.813802 0.813802C1.35634 0.271267 2.00738 0 2.76693 0H47.2331Z" fill="#2A1E14"/>
</svg>
