<svg width="24" height="24" viewBox="0 0 24 24" fill="none" xmlns="http://www.w3.org/2000/svg">
<path d="M13 13H15C15.2652 13 15.5196 13.1054 15.7071 13.2929C15.8947 13.4804 16 13.7348 16 14C16 14.2652 15.8947 14.5196 15.7071 14.7071C15.5196 14.8946 15.2652 15 15 15H12C11.8686 15.0004 11.7384 14.9748 11.6169 14.9247C11.4954 14.8746 11.385 14.8009 11.292 14.708C11.1991 14.6151 11.1254 14.5047 11.0753 14.3832C11.0252 14.2616 10.9996 14.1314 11 14V10C11 9.73478 11.1054 9.48043 11.2929 9.29289C11.4804 9.10536 11.7348 9 12 9C12.2652 9 12.5196 9.10536 12.7071 9.29289C12.8947 9.48043 13 9.73478 13 10V13ZM5.86902 8.861C5.64053 8.75503 5.4424 8.59324 5.29291 8.39053C5.14342 8.18783 5.04738 7.95075 5.01364 7.70115C4.9799 7.45156 5.00955 7.19749 5.09986 6.96237C5.19018 6.72725 5.33824 6.51866 5.53039 6.35584C5.72255 6.19301 5.95261 6.08119 6.19936 6.03069C6.44611 5.98019 6.7016 5.99263 6.94228 6.06687C7.18295 6.14112 7.40105 6.27477 7.57647 6.4555C7.7519 6.63623 7.87898 6.85822 7.94602 7.101C8.30639 6.88907 8.68289 6.70584 9.07202 6.553C8.63468 6.2491 8.30581 5.81348 8.13334 5.30962C7.96088 4.80576 7.95382 4.25999 8.11319 3.75184C8.27257 3.24368 8.59005 2.7997 9.01939 2.48459C9.44872 2.16948 9.96746 1.9997 10.5 2H13.5C14.0326 1.9997 14.5513 2.16948 14.9806 2.48459C15.41 2.7997 15.7275 3.24368 15.8868 3.75184C16.0462 4.25999 16.0392 4.80576 15.8667 5.30962C15.6942 5.81348 15.3654 6.2491 14.928 6.553C15.318 6.707 15.695 6.89 16.054 7.101C16.121 6.85822 16.2481 6.63623 16.4236 6.4555C16.599 6.27477 16.8171 6.14112 17.0578 6.06687C17.2984 5.99263 17.5539 5.98019 17.8007 6.03069C18.0474 6.08119 18.2775 6.19301 18.4696 6.35584C18.6618 6.51866 18.8099 6.72725 18.9002 6.96237C18.9905 7.19749 19.0201 7.45156 18.9864 7.70115C18.9527 7.95075 18.8566 8.18783 18.7071 8.39053C18.5576 8.59324 18.3595 8.75503 18.131 8.861C19.1089 10.0278 19.7335 11.4495 19.9316 12.959C20.1296 14.4685 19.8928 16.0031 19.2489 17.3827C18.6051 18.7623 17.581 19.9295 16.2969 20.7473C15.0128 21.5651 13.5219 21.9996 11.9995 21.9996C10.4771 21.9996 8.98628 21.5651 7.70215 20.7473C6.41803 19.9295 5.39391 18.7623 4.75009 17.3827C4.10626 16.0031 3.86946 14.4685 4.06748 12.959C4.2655 11.4495 4.89013 10.0278 5.86802 8.861H5.86902ZM12 20C13.5913 20 15.1174 19.3679 16.2427 18.2426C17.3679 17.1174 18 15.5913 18 14C18 12.4087 17.3679 10.8826 16.2427 9.75736C15.1174 8.63214 13.5913 8 12 8C10.4087 8 8.88259 8.63214 7.75738 9.75736C6.63216 10.8826 6.00002 12.4087 6.00002 14C6.00002 15.5913 6.63216 17.1174 7.75738 18.2426C8.88259 19.3679 10.4087 20 12 20V20ZM10.5 4C10.3674 4 10.2402 4.05268 10.1465 4.14645C10.0527 4.24022 10 4.36739 10 4.5C10 4.63261 10.0527 4.75979 10.1465 4.85355C10.2402 4.94732 10.3674 5 10.5 5H13.5C13.6326 5 13.7598 4.94732 13.8536 4.85355C13.9473 4.75979 14 4.63261 14 4.5C14 4.36739 13.9473 4.24022 13.8536 4.14645C13.7598 4.05268 13.6326 4 13.5 4H10.5Z" fill="#2A1E14"/>
</svg>
