<svg width="24" height="24" viewBox="0 0 24 24" fill="none" xmlns="http://www.w3.org/2000/svg">
<path d="M13.6199 8.38198L15.5859 6.41498C15.3533 6.18245 15.1816 5.89615 15.0861 5.58144C14.9906 5.26673 14.9741 4.93331 15.0382 4.61073C15.1023 4.28815 15.245 3.98635 15.4536 3.73208C15.6622 3.4778 15.9303 3.27889 16.2341 3.15296C16.5379 3.02703 16.8681 2.97797 17.1954 3.01013C17.5228 3.04229 17.8371 3.15468 18.1106 3.33733C18.3841 3.51998 18.6083 3.76727 18.7635 4.05728C18.9186 4.34729 18.9998 4.67109 18.9999 4.99998C19.3288 4.99974 19.6528 5.08066 19.943 5.23556C20.2332 5.39047 20.4808 5.61457 20.6637 5.88801C20.8466 6.16145 20.9592 6.47579 20.9916 6.80317C21.024 7.13055 20.9751 7.46085 20.8493 7.76482C20.7235 8.06879 20.5246 8.33703 20.2704 8.54578C20.0161 8.75452 19.7143 8.89732 19.3916 8.96152C19.069 9.02572 18.7355 9.00934 18.4206 8.91383C18.1058 8.81832 17.8195 8.64663 17.5869 8.41398L15.7669 10.235" stroke="#2A1E14" stroke-width="2" stroke-linecap="round" stroke-linejoin="round"/>
<path d="M5.90364 18.5963C8.63731 21.33 11.8031 22.5963 12.9747 21.4247C14.1463 20.2532 12.88 17.0873 10.1463 14.3537C7.41261 11.62 4.24679 10.3537 3.07521 11.5253C1.90364 12.6968 3.16997 15.8626 5.90364 18.5963Z" stroke="#2A1E14" stroke-width="2" stroke-linecap="round" stroke-linejoin="round"/>
<path d="M12.9749 21.425C16.8799 17.519 17.8299 12.137 15.0959 9.40397C12.3629 6.66997 6.98093 7.61997 3.07593 11.525M7.49993 16L8.49993 17L7.49993 16Z" stroke="#2A1E14" stroke-width="2" stroke-linecap="round" stroke-linejoin="round"/>
</svg>
