<svg width="51" height="51" viewBox="0 0 51 51" fill="none" xmlns="http://www.w3.org/2000/svg">
<path d="M48.8594 0.109375H2.14062C1.01709 0.109375 0.109375 1.01709 0.109375 2.14062V48.8594C0.109375 49.9829 1.01709 50.8906 2.14062 50.8906H48.8594C49.9829 50.8906 50.8906 49.9829 50.8906 48.8594V2.14062C50.8906 1.01709 49.9829 0.109375 48.8594 0.109375ZM39.1665 18.4985C39.1855 18.7969 39.1855 19.1079 39.1855 19.4126C39.1855 28.731 32.0889 39.4648 19.1206 39.4648C15.1216 39.4648 11.4146 38.3032 8.2915 36.3037C8.86279 36.3672 9.40869 36.3926 9.99268 36.3926C13.2935 36.3926 16.3276 35.2754 18.7461 33.3838C15.6484 33.3203 13.0459 31.2891 12.1572 28.4961C13.2427 28.6548 14.2202 28.6548 15.3374 28.3691C13.7424 28.0451 12.3088 27.1788 11.2801 25.9176C10.2514 24.6563 9.69108 23.0778 9.69434 21.4502V21.3613C10.6274 21.8882 11.7256 22.2119 12.8745 22.2563C11.9087 21.6127 11.1166 20.7406 10.5685 19.7175C10.0204 18.6944 9.73321 17.5518 9.73242 16.3911C9.73242 15.0771 10.0752 13.8774 10.6909 12.8364C12.4613 15.0158 14.6705 16.7983 17.1748 18.0679C19.6792 19.3376 22.4227 20.0661 25.2271 20.2061C24.2305 15.4136 27.8105 11.5352 32.1143 11.5352C34.1455 11.5352 35.9736 12.3857 37.2622 13.7568C38.8555 13.4585 40.3789 12.8618 41.7373 12.062C41.2104 13.6934 40.106 15.0708 38.6396 15.9404C40.0615 15.7881 41.4326 15.3945 42.7021 14.8423C41.7437 16.2515 40.5439 17.502 39.1665 18.4985V18.4985Z" fill="#2A1E14"/>
</svg>
